G75*
%MOIN*%
%OFA0B0*%
%FSLAX25Y25*%
%IPPOS*%
%LPD*%
%AMOC8*
5,1,8,0,0,1.08239X$1,22.5*
%
%ADD10OC8,0.10000*%
%ADD11C,0.05200*%
%ADD12OC8,0.05200*%
%ADD13C,0.01000*%
%ADD14C,0.04000*%
D10*
X0030370Y0193874D03*
X0030488Y0213677D03*
D11*
X0066433Y0230605D02*
X0066433Y0235805D01*
X0076433Y0235805D02*
X0076433Y0230605D01*
X0086433Y0230605D02*
X0086433Y0235805D01*
X0096433Y0235805D02*
X0096433Y0230605D01*
X0106433Y0230605D02*
X0106433Y0235805D01*
X0116433Y0235805D02*
X0116433Y0230605D01*
X0126433Y0230605D02*
X0126433Y0235805D01*
X0136433Y0235805D02*
X0136433Y0230605D01*
X0146433Y0230605D02*
X0146433Y0235805D01*
X0156433Y0235805D02*
X0156433Y0230605D01*
X0166433Y0230605D02*
X0166433Y0235805D01*
X0176433Y0235805D02*
X0176433Y0230605D01*
X0186433Y0230605D02*
X0186433Y0235805D01*
X0196433Y0235805D02*
X0196433Y0230605D01*
X0196433Y0175805D02*
X0196433Y0170605D01*
X0186433Y0170605D02*
X0186433Y0175805D01*
X0176433Y0175805D02*
X0176433Y0170605D01*
X0166433Y0170605D02*
X0166433Y0175805D01*
X0156433Y0175805D02*
X0156433Y0170605D01*
X0146433Y0170605D02*
X0146433Y0175805D01*
X0136433Y0175805D02*
X0136433Y0170605D01*
X0126433Y0170605D02*
X0126433Y0175805D01*
X0116433Y0175805D02*
X0116433Y0170605D01*
X0106433Y0170605D02*
X0106433Y0175805D01*
X0096433Y0175805D02*
X0096433Y0170605D01*
X0086433Y0170605D02*
X0086433Y0175805D01*
X0076433Y0175805D02*
X0076433Y0170605D01*
X0066433Y0170605D02*
X0066433Y0175805D01*
X0062654Y0144899D02*
X0062654Y0139699D01*
X0072654Y0139699D02*
X0072654Y0144899D01*
X0082654Y0144899D02*
X0082654Y0139699D01*
X0092654Y0139699D02*
X0092654Y0144899D01*
X0102654Y0144899D02*
X0102654Y0139699D01*
X0112654Y0139699D02*
X0112654Y0144899D01*
X0122654Y0144899D02*
X0122654Y0139699D01*
X0132654Y0139699D02*
X0132654Y0144899D01*
X0142654Y0144899D02*
X0142654Y0139699D01*
X0152654Y0139699D02*
X0152654Y0144899D01*
X0162654Y0144899D02*
X0162654Y0139699D01*
X0162654Y0084899D02*
X0162654Y0079699D01*
X0152654Y0079699D02*
X0152654Y0084899D01*
X0142654Y0084899D02*
X0142654Y0079699D01*
X0132654Y0079699D02*
X0132654Y0084899D01*
X0122654Y0084899D02*
X0122654Y0079699D01*
X0112654Y0079699D02*
X0112654Y0084899D01*
X0102654Y0084899D02*
X0102654Y0079699D01*
X0092654Y0079699D02*
X0092654Y0084899D01*
X0082654Y0084899D02*
X0082654Y0079699D01*
X0072654Y0079699D02*
X0072654Y0084899D01*
X0062654Y0084899D02*
X0062654Y0079699D01*
X0052654Y0079699D02*
X0052654Y0084899D01*
X0054898Y0052931D02*
X0054898Y0047731D01*
X0064898Y0047731D02*
X0064898Y0052931D01*
X0074898Y0052931D02*
X0074898Y0047731D01*
X0084898Y0047731D02*
X0084898Y0052931D01*
X0094898Y0052931D02*
X0094898Y0047731D01*
X0094898Y0022931D02*
X0094898Y0017731D01*
X0084898Y0017731D02*
X0084898Y0022931D01*
X0074898Y0022931D02*
X0074898Y0017731D01*
X0064898Y0017731D02*
X0064898Y0022931D01*
X0054898Y0022931D02*
X0054898Y0017731D01*
X0044898Y0017731D02*
X0044898Y0022931D01*
X0034898Y0022931D02*
X0034898Y0017731D01*
X0024898Y0017731D02*
X0024898Y0022931D01*
X0024898Y0047731D02*
X0024898Y0052931D01*
X0034898Y0052931D02*
X0034898Y0047731D01*
X0044898Y0047731D02*
X0044898Y0052931D01*
X0052654Y0139699D02*
X0052654Y0144899D01*
D12*
X0118047Y0046276D03*
X0123047Y0038776D03*
X0128047Y0046276D03*
X0146669Y0054465D03*
X0164386Y0054465D03*
X0182102Y0054465D03*
X0199819Y0054465D03*
X0199819Y0014465D03*
X0182102Y0014465D03*
X0164386Y0014465D03*
X0146669Y0014465D03*
X0128047Y0020685D03*
X0123047Y0013185D03*
X0118047Y0020685D03*
D13*
X0018717Y0011827D02*
X0009858Y0020685D01*
X0009858Y0038402D01*
X0015764Y0044307D01*
X0015764Y0208677D01*
X0047260Y0240173D01*
X0119110Y0240173D01*
X0126000Y0233283D01*
X0126433Y0233205D01*
X0116433Y0173205D02*
X0117142Y0172260D01*
X0117142Y0137811D01*
X0082693Y0103362D01*
X0082693Y0082693D01*
X0082654Y0082299D01*
X0072850Y0082693D02*
X0072654Y0082299D01*
X0072850Y0082693D02*
X0072850Y0104346D01*
X0107299Y0138795D01*
X0107299Y0172260D01*
X0106433Y0173205D01*
X0086630Y0172260D02*
X0086433Y0173205D01*
X0086630Y0172260D02*
X0086630Y0137811D01*
X0053165Y0104346D01*
X0053165Y0082693D01*
X0052654Y0082299D01*
X0067929Y0078756D02*
X0050213Y0061039D01*
X0050213Y0047260D01*
X0045291Y0042339D01*
X0045291Y0020685D01*
X0044898Y0020331D01*
X0039386Y0016748D02*
X0042339Y0013795D01*
X0066945Y0013795D01*
X0068913Y0015764D01*
X0068913Y0053165D01*
X0074819Y0059071D01*
X0147654Y0059071D01*
X0151591Y0055134D01*
X0164386Y0055134D01*
X0164386Y0054465D01*
X0164386Y0054150D01*
X0182102Y0054150D01*
X0182102Y0054465D01*
X0163402Y0082693D02*
X0162654Y0082299D01*
X0163402Y0082693D02*
X0195882Y0115173D01*
X0195882Y0172260D01*
X0196433Y0173205D01*
X0186433Y0173205D02*
X0186039Y0172260D01*
X0186039Y0151591D01*
X0153559Y0119110D01*
X0153559Y0082693D01*
X0152654Y0082299D01*
X0142732Y0082693D02*
X0142654Y0082299D01*
X0142732Y0082693D02*
X0142732Y0111236D01*
X0176197Y0144701D01*
X0176197Y0172260D01*
X0176433Y0173205D01*
X0167339Y0172260D02*
X0166433Y0173205D01*
X0167339Y0172260D02*
X0167339Y0138795D01*
X0132890Y0104346D01*
X0132890Y0082693D01*
X0132654Y0082299D01*
X0128953Y0046276D02*
X0128047Y0046276D01*
X0128953Y0046276D02*
X0128953Y0036433D01*
X0126000Y0029543D02*
X0118126Y0037417D01*
X0118126Y0046276D01*
X0118047Y0046276D01*
X0124031Y0024622D02*
X0102378Y0024622D01*
X0100409Y0022654D01*
X0100409Y0016748D01*
X0095488Y0011827D01*
X0018717Y0011827D01*
X0024898Y0020331D02*
X0025606Y0020685D01*
X0034465Y0020685D01*
X0034898Y0020331D01*
X0039386Y0016748D02*
X0039386Y0036433D01*
X0025606Y0050213D01*
X0024898Y0050331D01*
X0025606Y0051197D01*
X0025606Y0188992D01*
X0029543Y0192929D01*
X0030370Y0193874D01*
X0066433Y0173205D02*
X0065961Y0172260D01*
X0035449Y0141748D01*
X0035449Y0051197D01*
X0034898Y0050331D01*
X0054898Y0050331D02*
X0055134Y0050213D01*
X0055134Y0020685D01*
X0054898Y0020331D01*
X0055134Y0020685D02*
X0063992Y0020685D01*
X0064898Y0020331D01*
X0074898Y0020331D02*
X0075803Y0020685D01*
X0084661Y0020685D01*
X0084898Y0020331D01*
X0085646Y0020685D01*
X0094504Y0020685D01*
X0094898Y0020331D01*
X0095488Y0020685D01*
X0095488Y0050213D01*
X0094898Y0050331D01*
X0118047Y0020685D02*
X0121079Y0020685D01*
X0131906Y0009858D01*
X0165370Y0009858D01*
X0169307Y0013795D01*
X0182102Y0013795D01*
X0182102Y0014465D01*
X0128047Y0020685D02*
X0127969Y0020685D01*
X0124031Y0024622D01*
X0067929Y0078756D02*
X0067929Y0113205D01*
X0092535Y0137811D01*
X0092535Y0141748D01*
X0092654Y0142299D01*
X0082654Y0142299D02*
X0081709Y0142732D01*
X0081709Y0167339D01*
X0076787Y0172260D01*
X0076433Y0173205D01*
X0122654Y0142299D02*
X0123047Y0142732D01*
X0141748Y0161433D01*
X0142732Y0142732D02*
X0142654Y0142299D01*
X0142732Y0142732D02*
X0162417Y0162417D01*
X0064898Y0050331D02*
X0063992Y0050213D01*
X0055134Y0050213D01*
D14*
X0126000Y0029543D03*
X0128953Y0036433D03*
X0141748Y0161433D03*
X0162417Y0162417D03*
M02*
