%
M48
M72
T01C0.0240
T02C0.0320
T03C0.0440
%
T01
X12600Y2954
X12895Y3643
X14175Y16143
X16242Y16242
T02
X2490Y2033
X3490Y2033
X4490Y2033
X5490Y2033
X6490Y2033
X7490Y2033
X8490Y2033
X9490Y2033
X11805Y2069
X12305Y1319
X12805Y2069
X12305Y3878
X12805Y4628
X11805Y4628
X9490Y5033
X8490Y5033
X7490Y5033
X6490Y5033
X5490Y5033
X4490Y5033
X3490Y5033
X2490Y5033
X5265Y8230
X6265Y8230
X7265Y8230
X8265Y8230
X9265Y8230
X10265Y8230
X11265Y8230
X12265Y8230
X13265Y8230
X14265Y8230
X15265Y8230
X16265Y8230
X16439Y5446
X18210Y5446
X19982Y5446
X19982Y1446
X18210Y1446
X16439Y1446
X14667Y1446
X14667Y5446
X14265Y14230
X13265Y14230
X12265Y14230
X11265Y14230
X10265Y14230
X9265Y14230
X8265Y14230
X7265Y14230
X6265Y14230
X5265Y14230
X6643Y17320
X7643Y17320
X8643Y17320
X9643Y17320
X10643Y17320
X11643Y17320
X12643Y17320
X13643Y17320
X14643Y17320
X15643Y17320
X16643Y17320
X17643Y17320
X18643Y17320
X19643Y17320
X16265Y14230
X15265Y14230
X15643Y23320
X14643Y23320
X13643Y23320
X12643Y23320
X11643Y23320
X10643Y23320
X9643Y23320
X8643Y23320
X7643Y23320
X6643Y23320
X16643Y23320
X17643Y23320
X18643Y23320
X19643Y23320
T03
X3049Y21368
X3037Y19387
M30
