G75*
%MOIN*%
%OFA0B0*%
%FSLAX25Y25*%
%IPPOS*%
%LPD*%
%AMOC8*
5,1,8,0,0,1.08239X$1,22.5*
%
%ADD10OC8,0.10800*%
%ADD11C,0.06000*%
%ADD12OC8,0.06000*%
%ADD13C,0.04800*%
D10*
X0030370Y0193874D03*
X0030488Y0213677D03*
D11*
X0024898Y0022931D02*
X0024898Y0017731D01*
X0034898Y0017731D02*
X0034898Y0022931D01*
X0044898Y0022931D02*
X0044898Y0017731D01*
X0054898Y0017731D02*
X0054898Y0022931D01*
X0064898Y0022931D02*
X0064898Y0017731D01*
X0074898Y0017731D02*
X0074898Y0022931D01*
X0084898Y0022931D02*
X0084898Y0017731D01*
X0094898Y0017731D02*
X0094898Y0022931D01*
X0094898Y0047731D02*
X0094898Y0052931D01*
X0084898Y0052931D02*
X0084898Y0047731D01*
X0074898Y0047731D02*
X0074898Y0052931D01*
X0064898Y0052931D02*
X0064898Y0047731D01*
X0054898Y0047731D02*
X0054898Y0052931D01*
X0044898Y0052931D02*
X0044898Y0047731D01*
X0034898Y0047731D02*
X0034898Y0052931D01*
X0024898Y0052931D02*
X0024898Y0047731D01*
X0052654Y0079699D02*
X0052654Y0084899D01*
X0062654Y0084899D02*
X0062654Y0079699D01*
X0072654Y0079699D02*
X0072654Y0084899D01*
X0082654Y0084899D02*
X0082654Y0079699D01*
X0092654Y0079699D02*
X0092654Y0084899D01*
X0102654Y0084899D02*
X0102654Y0079699D01*
X0112654Y0079699D02*
X0112654Y0084899D01*
X0122654Y0084899D02*
X0122654Y0079699D01*
X0132654Y0079699D02*
X0132654Y0084899D01*
X0142654Y0084899D02*
X0142654Y0079699D01*
X0152654Y0079699D02*
X0152654Y0084899D01*
X0162654Y0084899D02*
X0162654Y0079699D01*
X0162654Y0139699D02*
X0162654Y0144899D01*
X0152654Y0144899D02*
X0152654Y0139699D01*
X0142654Y0139699D02*
X0142654Y0144899D01*
X0132654Y0144899D02*
X0132654Y0139699D01*
X0122654Y0139699D02*
X0122654Y0144899D01*
X0112654Y0144899D02*
X0112654Y0139699D01*
X0102654Y0139699D02*
X0102654Y0144899D01*
X0092654Y0144899D02*
X0092654Y0139699D01*
X0082654Y0139699D02*
X0082654Y0144899D01*
X0072654Y0144899D02*
X0072654Y0139699D01*
X0062654Y0139699D02*
X0062654Y0144899D01*
X0052654Y0144899D02*
X0052654Y0139699D01*
X0066433Y0170605D02*
X0066433Y0175805D01*
X0076433Y0175805D02*
X0076433Y0170605D01*
X0086433Y0170605D02*
X0086433Y0175805D01*
X0096433Y0175805D02*
X0096433Y0170605D01*
X0106433Y0170605D02*
X0106433Y0175805D01*
X0116433Y0175805D02*
X0116433Y0170605D01*
X0126433Y0170605D02*
X0126433Y0175805D01*
X0136433Y0175805D02*
X0136433Y0170605D01*
X0146433Y0170605D02*
X0146433Y0175805D01*
X0156433Y0175805D02*
X0156433Y0170605D01*
X0166433Y0170605D02*
X0166433Y0175805D01*
X0176433Y0175805D02*
X0176433Y0170605D01*
X0186433Y0170605D02*
X0186433Y0175805D01*
X0196433Y0175805D02*
X0196433Y0170605D01*
X0196433Y0230605D02*
X0196433Y0235805D01*
X0186433Y0235805D02*
X0186433Y0230605D01*
X0176433Y0230605D02*
X0176433Y0235805D01*
X0166433Y0235805D02*
X0166433Y0230605D01*
X0156433Y0230605D02*
X0156433Y0235805D01*
X0146433Y0235805D02*
X0146433Y0230605D01*
X0136433Y0230605D02*
X0136433Y0235805D01*
X0126433Y0235805D02*
X0126433Y0230605D01*
X0116433Y0230605D02*
X0116433Y0235805D01*
X0106433Y0235805D02*
X0106433Y0230605D01*
X0096433Y0230605D02*
X0096433Y0235805D01*
X0086433Y0235805D02*
X0086433Y0230605D01*
X0076433Y0230605D02*
X0076433Y0235805D01*
X0066433Y0235805D02*
X0066433Y0230605D01*
D12*
X0146669Y0054465D03*
X0164386Y0054465D03*
X0182102Y0054465D03*
X0199819Y0054465D03*
X0199819Y0014465D03*
X0182102Y0014465D03*
X0164386Y0014465D03*
X0146669Y0014465D03*
X0128047Y0020685D03*
X0123047Y0013185D03*
X0118047Y0020685D03*
X0123047Y0038776D03*
X0118047Y0046276D03*
X0128047Y0046276D03*
D13*
X0128953Y0036433D03*
X0126000Y0029543D03*
X0141748Y0161433D03*
X0162417Y0162417D03*
M02*
